<?xml version="1.0" encoding="UTF-8"?>
<svg xmlns="http://www.w3.org/2000/svg" version="1.1" xmlns:xlink="http://www.w3.org/1999/xlink" viewBox="0 0 800 800">
  <defs>
    <style>
      .cls-1 {
        mask: url(#mask);
      }

      .cls-2 {
        fill: tan;
        stroke: #000;
        stroke-miterlimit: 10;
      }

      .cls-3 {
        filter: url(#luminosity-invert);
      }
    </style>
    <filter id="luminosity-invert" x="-38.4" y="2.5" width="872.9" height="798" color-interpolation-filters="sRGB" filterUnits="userSpaceOnUse">
      <feColorMatrix result="cm" values="-1 0 0 0 1 0 -1 0 0 1 0 0 -1 0 1 0 0 0 1 0"/>
    </filter>
    <mask id="mask" x="-38.4" y="2.5" width="872.9" height="798" maskUnits="userSpaceOnUse">
      <g class="cls-3">
        <g>
          <path d="M398.4,353.4c44.9-.8,81.4,35.7,80.6,80.6-.8,42.3-35.3,76.8-77.6,77.6-44.9.8-81.4-35.7-80.6-80.6s35.3-76.8,77.6-77.6Z"/>
          <path d="M433.5,517.1h-61.5c-59,0-106.9,47.9-106.9,106.9v76.5l.2,1.3,5.6,1.8c53.3,16.7,99.6,22.2,137.8,22.2,74.4,0,117.6-21.2,120.3-22.6l5.3-2.7h.5s0-82.1,0-82.1c0-55.8-45.4-101.3-101.3-101.3Z"/>
          <path d="M237.3,74.4c71.4-.6,129.4,57.4,128.7,128.7-.6,68.2-58.3,125.9-126.5,126.5-71.4.6-129.4-57.4-128.7-128.7.6-68.2,58.3-125.9,126.5-126.5Z"/>
          <path d="M561.4,329.7c68,0,123.5-53.2,127.4-120.2,4.4-75.9-59.2-139.3-135-134.9-67,3.9-120,59.5-120,127.4s57.1,127.7,127.6,127.7Z"/>
          <path d="M337.8,504.6c-20.3-17.5-33.1-43.3-33.1-72.1s19.4-66.1,48-82.5c-18.6-7.4-38.9-11.6-60.1-11.6h-108.3c-90.1,0-163.4,73.3-163.4,163.4v132.5l.3,2.1,9.1,2.8c84.4,26.4,157.8,35.4,218.7,35.8v-56.6c0-54.9,37.9-101,88.9-113.7Z"/>
          <path d="M615.5,338.4h-108.3c-21.2,0-41.5,4.2-60.1,11.6,28.6,16.4,48,47.2,48,82.5s-12.9,54.6-33.1,72c20.4,5.1,39.2,15.5,54.5,30.8,22.2,22.2,34.4,51.7,34.4,83v56.6c60.8-.3,134.3-9.4,218.7-35.8l9.1-2.8.3-2.1v-132.5c0-90.1-73.3-163.4-163.4-163.4Z"/>
        </g>
      </g>
    </mask>
  </defs>
  <!-- Generator: Adobe Illustrator 28.7.1, SVG Export Plug-In . SVG Version: 1.2.0 Build 142)  -->
  <g>
    <g id="Capa_1">
      <g class="cls-1">
        <rect class="cls-2" x="-37.9" y="3" width="871.9" height="797"/>
      </g>
    </g>
  </g>
</svg>