<?xml version="1.0" encoding="UTF-8"?>
<svg xmlns="http://www.w3.org/2000/svg" version="1.1" xmlns:xlink="http://www.w3.org/1999/xlink" viewBox="0 0 800 800">
  <defs>
    <style>
      .cls-1 {
        mask: url(#mask);
      }

      .cls-2 {
        fill: tan;
        stroke: #000;
        stroke-miterlimit: 10;
      }

      .cls-3 {
        filter: url(#luminosity-invert);
      }
    </style>
    <filter id="luminosity-invert" x="-63.5" y="-11.9" width="901" height="823.7" color-interpolation-filters="sRGB" filterUnits="userSpaceOnUse">
      <feColorMatrix result="cm" values="-1 0 0 0 1 0 -1 0 0 1 0 0 -1 0 1 0 0 0 1 0"/>
    </filter>
    <mask id="mask" x="-63.5" y="-11.9" width="901" height="823.7" maskUnits="userSpaceOnUse">
      <g class="cls-3">
        <path d="M791,281.5v-22c0-9.2-7.4-16.6-16.6-16.6h-11.9v-45.4c0-2.8-.7-5.5-2.1-8l-38.1-67.9c-1.4-2.5-4.1-4.1-6.9-4.1s-5.5,1.6-6.9,4.1l-38.1,67.9c-1.4,2.4-2.1,5.2-2.1,8v45.4h-63.5v-45.4c0-2.8-.7-5.5-2.1-8l-38.1-67.9c-1.4-2.5-4.1-4.1-7-4.1s-5.5,1.6-6.9,4.1l-38.2,67.9c-1.4,2.4-2.1,5.2-2.1,8v45.4h-63.5v-45.4c0-2.8-.7-5.5-2.1-8l-38.1-67.9c-1.4-2.5-4.1-4.1-7-4.1s-5.5,1.6-6.9,4.1l-38.2,67.9c-1.4,2.4-2.1,5.2-2.1,8v45.4h-63.5v-45.4c0-2.8-.7-5.5-2.1-8l-38.1-67.9c-1.4-2.5-4-4.1-6.9-4.1s-5.5,1.6-6.9,4.1l-38.1,67.9c-1.4,2.4-2.1,5.2-2.1,8v45.4h-63.5v-45.4c0-2.8-.7-5.5-2.1-8l-38.2-67.9c-1.4-2.5-4-4.1-6.9-4.1s-5.5,1.6-7,4.1l-38.1,67.9c-1.4,2.4-2.1,5.2-2.1,8v45.4h-11.9c-9.2,0-16.6,7.4-16.6,16.6v22c0,9.2,7.4,16.6,16.6,16.6h11.9v256.9h-12.2c-9,0-16.3,7.3-16.3,16.3v22.8c0,9,7.3,16.3,16.3,16.3h12.2v56c0,9,7.3,16.3,16.3,16.3h61.8c9,0,16.3-7.3,16.3-16.3v-56h63.5v56c0,9,7.3,16.3,16.3,16.3h61.8c9,0,16.3-7.3,16.3-16.3v-56h63.5v55.6c0,9.2,7.4,16.6,16.6,16.6h61.4c9,0,16.3-7.3,16.3-16.3v-56h63.5v55.6c0,9.2,7.4,16.6,16.6,16.6h61.4c9,0,16.3-7.3,16.3-16.3v-56h63.5v55.6c0,9.2,7.4,16.6,16.6,16.6h61.1c9.2,0,16.6-7.4,16.6-16.6v-55.6h11.9c9.2,0,16.6-7.4,16.6-16.6v-22c0-9.2-7.4-16.6-16.6-16.6h-11.9v-256.9h11.9c9.2,0,16.6-7.4,16.6-16.6ZM131.2,555v-256.9h63.5v256.9h-63.5ZM289,555v-256.9h63.5v256.9h-63.5ZM446.9,555v-256.9h63.5v256.9h-63.5ZM668.2,555h-63.5v-256.9h63.5v256.9h0Z"/>
      </g>
    </mask>
  </defs>
  <!-- Generator: Adobe Illustrator 28.7.1, SVG Export Plug-In . SVG Version: 1.2.0 Build 142)  -->
  <g>
    <g id="Capa_1">
      <g class="cls-1">
        <rect class="cls-2" x="-63" y="-11.4" width="900" height="822.7"/>
      </g>
    </g>
  </g>
</svg>