<?xml version="1.0" encoding="UTF-8"?>
<svg id="Vrstva_1" xmlns="http://www.w3.org/2000/svg" version="1.1" viewBox="0 0 444.26 237.96">
  <!-- Generator: Adobe Illustrator 29.4.0, SVG Export Plug-In . SVG Version: 2.1.0 Build 73)  -->
  <defs>
    <style>
      .st0, .st1, .st2 {
        fill: #fff;
      }

      .st1, .st2, .st3 {
        stroke: #000;
      }

      .st1, .st3 {
        stroke-linecap: round;
        stroke-linejoin: round;
      }

      .st2 {
        stroke-miterlimit: 10;
        stroke-width: 1.5px;
      }

      .st4 {
        display: none;
      }
    </style>
  </defs>
  <g>
    <path d="M11.95,227.51v-38.56h8.98v31.29h19.23v7.27H11.95Z"/>
    <path d="M57.12,227.95c-2.5,0-4.7-.48-6.61-1.43s-3.4-2.42-4.46-4.41c-1.07-1.98-1.6-4.48-1.6-7.49v-16.75h8.59v15.43c0,2.5.52,4.32,1.57,5.48,1.05,1.16,2.52,1.74,4.43,1.74,1.32,0,2.5-.29,3.53-.88,1.03-.59,1.85-1.47,2.45-2.64.61-1.17.91-2.64.91-4.41v-14.71h8.54v29.64h-8.15v-8.21l1.49,2.42c-1.03,2.06-2.5,3.61-4.41,4.66-1.91,1.05-4,1.57-6.28,1.57Z"/>
    <path d="M78.94,205.14v-6.61h20.55v6.61h-20.55ZM94.58,227.95c-3.49,0-6.21-.89-8.15-2.67-1.95-1.78-2.92-4.43-2.92-7.96v-26h8.65v25.84c0,1.25.32,2.22.96,2.92.64.7,1.51,1.05,2.62,1.05,1.4,0,2.57-.37,3.53-1.1l2.26,6.06c-.85.62-1.88,1.09-3.11,1.41-1.23.31-2.51.47-3.83.47Z"/>
    <path d="M106.43,227.51v-29.64h8.21v8.43l-1.16-2.48c.88-2.09,2.29-3.68,4.24-4.77,1.95-1.08,4.31-1.62,7.11-1.62v7.99c-.33-.07-.65-.13-.96-.17-.31-.04-.62-.06-.91-.06-2.42,0-4.35.68-5.78,2.04-1.43,1.36-2.15,3.45-2.15,6.28v13.99h-8.59Z"/>
    <path d="M139.32,227.95c-2.28,0-4.24-.39-5.89-1.18-1.65-.79-2.93-1.86-3.83-3.22-.9-1.36-1.35-2.88-1.35-4.57s.43-3.26,1.29-4.6c.86-1.34,2.23-2.38,4.1-3.11,1.87-.73,4.33-1.1,7.38-1.1h7.82v4.96h-6.94c-2.02,0-3.41.33-4.16.99-.75.66-1.13,1.49-1.13,2.48,0,1.1.43,1.97,1.29,2.62.86.64,2.03.96,3.5.96s2.78-.33,3.94-.99c1.16-.66,1.97-1.67,2.45-3.03l1.32,4.02c-.62,1.84-1.76,3.26-3.42,4.27-1.65,1.01-3.78,1.51-6.39,1.51ZM148.35,227.51v-5.78l-.55-1.27v-10.36c0-1.84-.56-3.27-1.68-4.3-1.12-1.03-2.84-1.54-5.15-1.54-1.58,0-3.13.25-4.66.74-1.52.5-2.84,1.17-3.94,2.01l-3.03-6c1.62-1.17,3.56-2.07,5.84-2.67,2.28-.61,4.59-.91,6.94-.91,4.52,0,8.02,1.07,10.52,3.2,2.5,2.13,3.75,5.45,3.75,9.97v16.91h-8.04Z"/>
    <path d="M180.36,227.51v-38.56h7.38l16.42,27.21h-3.91l16.09-27.21h7.44v38.56h-8.32l-.11-25.73h1.65l-13,21.59h-3.97l-13.17-21.59h1.82v25.73h-8.32Z"/>
    <path d="M246.41,227.95c-3.12,0-5.9-.66-8.35-1.98-2.44-1.32-4.36-3.13-5.76-5.43-1.4-2.29-2.09-4.91-2.09-7.85s.7-5.61,2.09-7.91c1.4-2.29,3.31-4.09,5.76-5.4s5.22-1.96,8.35-1.96,5.97.65,8.43,1.96c2.46,1.3,4.39,3.1,5.78,5.4,1.4,2.3,2.09,4.93,2.09,7.91s-.7,5.6-2.09,7.88c-1.4,2.28-3.32,4.08-5.78,5.4-2.46,1.32-5.27,1.98-8.43,1.98ZM246.41,220.9c1.47,0,2.76-.32,3.88-.96,1.12-.64,2.02-1.59,2.7-2.84.68-1.25,1.02-2.72,1.02-4.41s-.34-3.2-1.02-4.41c-.68-1.21-1.58-2.14-2.7-2.78-1.12-.64-2.4-.96-3.83-.96s-2.72.32-3.86.96c-1.14.64-2.05,1.57-2.73,2.78-.68,1.21-1.02,2.68-1.02,4.41s.34,3.16,1.02,4.41c.68,1.25,1.59,2.2,2.73,2.84,1.14.64,2.41.96,3.8.96Z"/>
    <path d="M286.46,197.43c2.35,0,4.45.47,6.31,1.41,1.85.94,3.31,2.37,4.38,4.3,1.07,1.93,1.6,4.4,1.6,7.41v16.97h-8.59v-15.65c0-2.39-.52-4.15-1.57-5.29-1.05-1.14-2.53-1.71-4.43-1.71-1.36,0-2.58.29-3.66.88-1.08.59-1.93,1.45-2.53,2.59-.61,1.14-.91,2.64-.91,4.52v14.65h-8.59v-29.64h8.21v8.21l-1.54-2.48c1.06-1.98,2.59-3.51,4.57-4.57,1.98-1.06,4.24-1.6,6.78-1.6Z"/>
    <path d="M302.98,205.14v-6.61h20.55v6.61h-20.55ZM318.63,227.95c-3.49,0-6.21-.89-8.15-2.67-1.95-1.78-2.92-4.43-2.92-7.96v-26h8.65v25.84c0,1.25.32,2.22.96,2.92.64.7,1.52,1.05,2.62,1.05,1.4,0,2.57-.37,3.53-1.1l2.26,6.06c-.84.62-1.88,1.09-3.11,1.41-1.23.31-2.51.47-3.83.47Z"/>
    <path d="M339.62,227.95c-2.28,0-4.24-.39-5.89-1.18-1.65-.79-2.93-1.86-3.83-3.22-.9-1.36-1.35-2.88-1.35-4.57s.43-3.26,1.29-4.6c.86-1.34,2.23-2.38,4.1-3.11,1.87-.73,4.33-1.1,7.38-1.1h7.82v4.96h-6.94c-2.02,0-3.41.33-4.16.99s-1.13,1.49-1.13,2.48c0,1.1.43,1.97,1.29,2.62.86.64,2.03.96,3.5.96s2.78-.33,3.94-.99,1.97-1.67,2.45-3.03l1.32,4.02c-.62,1.84-1.76,3.26-3.42,4.27-1.65,1.01-3.78,1.51-6.39,1.51ZM348.65,227.51v-5.78l-.55-1.27v-10.36c0-1.84-.56-3.27-1.68-4.3-1.12-1.03-2.84-1.54-5.15-1.54-1.58,0-3.13.25-4.65.74-1.52.5-2.84,1.17-3.94,2.01l-3.03-6c1.62-1.17,3.56-2.07,5.84-2.67,2.28-.61,4.59-.91,6.94-.91,4.52,0,8.02,1.07,10.52,3.2,2.5,2.13,3.75,5.45,3.75,9.97v16.91h-8.04Z"/>
    <path d="M382.48,197.43c2.35,0,4.45.47,6.31,1.41,1.85.94,3.31,2.37,4.38,4.3,1.07,1.93,1.6,4.4,1.6,7.41v16.97h-8.59v-15.65c0-2.39-.52-4.15-1.57-5.29-1.05-1.14-2.53-1.71-4.43-1.71-1.36,0-2.58.29-3.66.88-1.08.59-1.93,1.45-2.53,2.59-.61,1.14-.91,2.64-.91,4.52v14.65h-8.59v-29.64h8.21v8.21l-1.54-2.48c1.06-1.98,2.59-3.51,4.57-4.57,1.98-1.06,4.24-1.6,6.78-1.6Z"/>
    <path d="M411.68,227.95c-2.28,0-4.24-.39-5.89-1.18-1.65-.79-2.93-1.86-3.83-3.22-.9-1.36-1.35-2.88-1.35-4.57s.43-3.26,1.29-4.6c.86-1.34,2.23-2.38,4.1-3.11,1.87-.73,4.33-1.1,7.38-1.1h7.82v4.96h-6.94c-2.02,0-3.41.33-4.16.99s-1.13,1.49-1.13,2.48c0,1.1.43,1.97,1.29,2.62.86.64,2.03.96,3.5.96s2.78-.33,3.94-.99,1.97-1.67,2.45-3.03l1.32,4.02c-.62,1.84-1.76,3.26-3.42,4.27-1.65,1.01-3.78,1.51-6.39,1.51ZM420.71,227.51v-5.78l-.55-1.27v-10.36c0-1.84-.56-3.27-1.68-4.3-1.12-1.03-2.84-1.54-5.15-1.54-1.58,0-3.13.25-4.65.74-1.52.5-2.84,1.17-3.94,2.01l-3.03-6c1.62-1.17,3.56-2.07,5.84-2.67,2.28-.61,4.59-.91,6.94-.91,4.52,0,8.02,1.07,10.52,3.2,2.5,2.13,3.75,5.45,3.75,9.97v16.91h-8.04Z"/>
  </g>
  <g class="st4">
    <path class="st2" d="M72.41,39.18c1.85-3.98,4.76-6.27,9.38-5.93.56.04,1.29-.12,1.7-.47,2.66-2.27,5.91-3.29,9.16-4.07,8.39-2,16.33-1.17,22.62,5.39,2.2,2.3,3.72,5.29,5.42,8.04,3.98,6.46,7.85,13,11.84,19.46,2.05,3.31,5.25,4.66,9.03,4.76,1.41.04,2.82-.06,4.23-.05,6.19.02,12.41-.41,18.55.15,25.02,2.27,41.5,23.23,40.65,48.05-.03.95.51,2.13,1.17,2.83.76.8,1.9,1.39,2.98,1.73,3.38,1.08,6.78,2.1,10.22,2.95,6.4,1.57,12.61,3.54,18.19,7.17,2.21,1.44,3.6,3.42,4.33,5.95,2.36,8.04-1.77,17.36-9.38,21.11-6.04,2.97-12.54,3.66-19.14,3.79-10.44.22-20.68-.83-30.48-4.78-2.8-1.13-4.62-3.15-5.87-5.78-.26-.54-.29-1.18-.53-2.19,1.32.74,2.18,1.35,3.12,1.73,2.48,1.01,4.93,2.34,7.52,2.79,10.17,1.76,20.42,1.41,30.64.33,5.95-.63,10.26-3.79,12.7-9.3,1.27-2.86.71-5.01-1.68-7.03-2.14-1.81-4.71-2.91-7.45-2.67-5.36.46-10.69,1.26-16.03,2-1.57.22-3.18.47-4.63,1.06-3.84,1.58-7.66,3.19-11.44,4.9-3.32,1.49-7,.75-10.51-.27-1.05-.31-2.41-.41-2.26-1.59.12-.95,1.12-1.96,1.99-2.59,1.12-.81,2.5-1.27,3.77-1.87.81-.38,1.64-.75,2.55-1.16-1.87-5.19,1.51-7.54,5.45-9.84-.66-.43-1.08-.94-1.44-.9-2.81.34-6.2,4.36-6.24,7.34-.02,1.15.26,2.38-1.35,2.74-1.1.25-2.31,1.06-3.24.79-8.93-2.55-17.48-6.09-24.01-12.89-4.01-4.18-9.28-4.11-14.06-6.03-2.46,6.19-4.78,12.05-7.11,17.9-.91,2.29-3.28,3.73-5.88,3.53,2.76-6.56,5.45-13.13,8.29-19.63.63-1.44.25-2.43-.54-3.82-1.19,2.88-2.24,5.48-3.33,8.06-2.92,6.87-5.83,13.74-8.81,20.59-.96,2.21-2.61,3.88-5.11,3.93-2.92.06-5.83.05-8.72.56-.49.09-1.06-.24-1.59-.37-.88-.22-1.75-.53-2.65-.63-1.14-.13-1.85-.6-1.96-1.77-.12-1.3.8-1.69,1.81-1.89,1.68-.33,3.38-.59,5.07-.87,2.32-.38,4.07-1.5,5.07-3.82-2.08-.57-2.07-2.07-1.46-3.51.41-.96,1.37-1.67,2-2.54.48-.67,1.15-1.41,1.2-2.16.32-4.77.45-9.56.74-14.34.2-3.26-.06-6.27-1.66-9.31-1.92-3.67-2.9-7.82-4.75-11.53-4.46-8.93-8.99-17.83-13.87-26.52-3.68-6.55-8.98-11.77-15.23-15.99-2.28-1.54-5.21-2.46-5.78-5.74-.02-.09-.15-.2-.26-.23-1.82-.57-2.23-2.27-2.97-3.7v-1.84ZM91.48,42.29c-1.78-2.17-4.05-3.07-6.84-2.74-2.61.31-5.17.56-7.73-.6-1.14-.51-2.5.05-2.94,1.49-.44,1.46.46,2.26,1.67,2.86,1.83.91,1.7-.97,2.5-1.71,2.91,2.33,5.46,5.47,9.95,5.1.13.42.28.92.54,1.77-1.35-.11-2.6.08-3.56-.36-1.71-.79-3.21-2-4.85-2.94-.59-.34-1.73-.75-1.94-.52-.88,1,.1,1.67.81,2.19,1.82,1.36,3.69,2.64,5.55,3.93,7.19,4.97,13,11.2,16.89,19.06,5.29,10.69,11.46,20.96,15.44,32.28.48,1.37,1.2,2.66,1.81,3.99.21.02.42.05.64.07.53-2.3,1.29-4.58,1.56-6.91.56-4.85-.37-9.49-2.48-13.93-1.65-3.49-.74-6.95.61-10.31.29-.74.59-1.53,1.09-2.11,3.36-3.86,2.88-8.17,1.74-12.67-1.74-6.88-6-11.84-11.36-16.25-5.03-4.14-10.28-3.45-15.77-1.65-.75.25-1.46.61-2.48,1.04-.31-.39-.57-.74-.84-1.07ZM112.83,36.91c-.53.59-.88,1.13-1.37,1.49-.42.31-1.15.27-1.47.63-.38.42-.48,1.1-.7,1.67.57-.02,1.16.05,1.71-.07.58-.13,1.11-.47,1.68-.68,1.44-.53,1.95-1.56,1.68-3.03-.28-1.51-1.23-1.98-2.66-1.78-1.02.14-2.05.25-3.36.4.94,2.71,2.76.8,4.49,1.38ZM94.39,37.35c.33-.21.37-1.65.03-1.98-1.24-1.18-2.09.1-3.21.76.91,1.36,1.93,2.01,3.18,1.22Z"/>
    <path class="st2" d="M174.93,135.86c-4.14-2.09-8.22-4.16-12.31-6.19-.34-.17-.82-.2-1.2-.12-3.41.66-6.82,1.31-10.21,2.06-1.24.28-2.49.69-3.6,1.29-.56.31-1.2,1.23-1.12,1.77.09.6.95,1.54,1.48,1.55,3.71.08,7.37,1.35,11.14.39.88-.22,1.89.16,2.84.17,2.36.03,4.72.14,7.07-.02,2.05-.14,4.07-.61,5.91-.9Z"/>
  </g>
  <g class="st4">
    <path class="st1" d="M173.26,19.51c-1.43.74-8.02,8.61-9.2,8.49-5.31-.56-10.69-1.12-15.84-2.46-6.02-1.56-5.97-2.06-2.06-6.53,1.56-1.79,1.25-3.12-1.11-3.29-1.38-.1-3.5.88-4.72.55-1.4-.38-.21-1.61.45-2.58,1.54-2.26,3.42-4.28,5.54-6,4.24-3.44,9.48-5.68,14.93-6.18,9.31-.87,18.93,3.35,24.61,10.77,6.24,8.16,8.03,19.79,16.38,25.76,7.4,5.28,17.34,4.28,26.41,4.84,16.74,1.03,33.26,8.56,43.94,21.49,10.68,12.93,14.92,31.29,9.66,47.22-2.45,7.41-6.74,14.05-10.36,20.97-1.71,3.28-3.34,6.73-6.04,9.26-5.96,5.58-15.18,5.18-23.31,4.43-1.7-.13-3.39-.27-5.09-.4.97-.77,1.94-1.55,2.91-2.32-.84.11-1.69.21-2.53.32,1.22-2.86,4.56-4.16,7.63-4.64s6.33-.5,9.06-2,4.54-5.29,2.67-7.78c-1.4-1.87-4.24-2.1-6.4-1.21s-3.83,2.64-5.52,4.26c-16.7,16.01-41.78,22.74-64.25,17.25-22.48-5.49-41.63-23.01-49.08-44.92,9.28,9.12,18.82,18.25,30.31,24.36,11.48,6.11,25.32,8.94,37.64,4.77,10.31-3.49,18.84-11.88,22.49-22.13,1.3-3.64,2-7.63,1.07-11.38-1.71-6.86-9.45-11.59-16.33-9.97-6.76,1.58-11.15,7.84-15.67,13.11s-11.17,10.31-17.8,8.27c.42-.71.84-1.41,1.26-2.12-1.81.45-3.62.91-5.43,1.36.64-.96,1.29-1.92,1.93-2.88-1.22.48-2.44.95-3.66,1.43-.12-2.62,2.59-4.51,5.15-5.1s5.33-.49,7.65-1.73c5.32-2.84,5.08-10.42,4.09-16.36-1.62-9.74-3.24-19.49-4.86-29.23-3.03,7.73-1.89,16.95,2.93,23.71-13.1-5.84-22.6-19.08-23.95-33.36-.35-3.67-.36-7.67-2.01-11.06-1.81-3.72-5.99-5.54-9.77-6.59-1.64-.45-2.99-1.96-4.48-2.98,2.22.85,4.38,2,6.68,2.5,5.79,1.26,9.44,4.49,10.58,10.38.53,2.74.8,5.55,1.58,8.21.86,2.91,2.18,5.69,3.29,8.53l.91-.26c-.65-7.16,2.28-13.08,6.22-18.69,1.54-2.19,3.08-4.46,4.11-6.91,1.78-4.23.81-8.15-2.21-10.78-.18-.16-.47-.18-.9-.33M264.64,73.32c.08.34.12.7.24,1.03,5.36,13.86,1.88,25.59-8.68,35.52-3.28,3.09-6.84,5.88-10.2,8.89-1.07.95-1.89,2.18-3.22,3.75,5.57-3.84,10.57-7.18,15.46-10.69,6.76-4.85,10.84-11.34,11.29-19.8.36-6.71-.97-13.05-4.89-18.7ZM165.06,13.45c-3.03-3.79-5.52-3.7-8.65.33,3.19,3.04,6.02,2.94,8.65-.33ZM177.56,16.9c2.47-1.84,3.51-4.29,2.51-7-.35-.96-1.99-1.95-3.08-2.01-1.41-.07-2.87.79-4.31,1.24"/>
    <path class="st1" d="M139.75,15.19c.46,1.78.28,5.23.96,6.94.63,1.57,1.3,3,1.68,4.61-1.69-.58-3.11-2.62-3.68-4.26-.3-.87-.42-1.8-.45-2.72.52-3.88,1.71-3.74,1.49-4.56Z"/>
  </g>
  <g>
    <path class="st0" d="M7.38,183.32c11.75-21.45,136.86-128.68,136.86-128.68l29.46,15.32,41.52-48.51,19.4,21.96,9.23,3.5,20.86,25.89,12.19,7.89,21.18-30.13,34.56,34.84,93.82,78.18L7.38,183.32Z"/>
    <path d="M290.35,101.48c-6-5.96-11.86-12.08-17.44-18.44-4.4-5.02-8.35-10.44-12.34-15.8-4.27-5.74-8.34-11.63-12.5-17.45-.23-.33-.41-.76-.73-.94-2.91-1.64-5.84-3.23-9.17-5.05.17,1.35.15,2.53.48,3.61,3.1,10.25,6.82,20.24,11.84,29.75,2.47,4.68,4.36,9.66,6.69,14.41,1.4,2.87,3.28,5.5,4.72,8.35,2.57,5.08,6.98,8.71,10.15,13.3,3.39,4.93-1.78-.74,1.52,4.25.15.23.12.58.24,1.3-1.01-.73-1.76-1.16-2.38-1.74-10.37-9.65-9.58-10.87-18.25-21.92-2.43-3.09-3.84-7.04-5.43-10.72-3.76-8.71-7.41-17.47-10.99-26.25-3.42-8.41-6.73-16.86-10.04-25.31-1.44-3.68-3.14-7.17-6.27-10.25-.26.83-.58,1.33-.54,1.8.5,4.8-.61,9.31-2.66,13.55-1.3,2.68-.35,4.75.86,7.01,2.42,4.52,4.82,9.06,7.02,13.69.73,1.53.81,3.37.96,5.24-4.54-2.87-7.85-7.68-13.94-7.75.06.25.07.64.25.94,1.15,1.96.9,3.41-.6,5.37-2.77,3.61-5.24,7.47-6.41,12.09-.87,3.43-3.47,5.91-6.28,8.08-2.23,1.72-4.51,3.42-6.48,5.41-3.1,3.13-6.88,3.72-10.92,3.28-.79-.09-1.89-1.19-2.13-2.03-2.11-7.52-6.27-13.69-12.21-18.63-6.22-5.18-12.6-10.18-18.79-15.17-.45,2.96-.81,6.28-1.49,9.53-.39,1.87-1.16,3.69-1.95,5.44-1.24,2.77-1.36,5.32.49,7.93,1.62,2.29,3,4.76,4.46,7.17.99,1.64.66,2.81-.64,4.4-4.53,5.56-8.79,11.35-13.04,17.12-.73,1-.94,2.38-1.41,3.58-1.47,3.74-2.87,7.5-4.49,11.17-.41.92-1.37,2.15-2.75.62-.15-.16-1.14.64-1.72.62-2.41-.09-4.85-.11-7.21-.55-2.49-.46-4.32.43-5.73,2.2-4.91,6.17-10.91,11.13-17.19,15.81-5.56,4.14-10.99,8.46-16.5,12.68-.72.55-1.54.97-2.32,1.44-.18-.18-.35-.35-.53-.53.41-.66.7-1.45,1.25-1.97,1.77-1.65,3.62-3.22,5.47-4.78,3.43-2.88,6.39-5.97,8.06-10.36,1.53-4.02,4.2-7.61,5.8-11.62,1.05-2.62,1.1-5.65,1.6-8.5.04-.24-.02-.53.1-.71,2.25-3.2,1.18-6.26-.5-9.33-2.71-.72-5.57-2.01-8.43.01-.19.14-.47.17-.65.32-5.47,4.69-10.91,9.42-16.42,14.07-2.95,2.49-6.02,4.85-9.02,7.28-9.7,7.85-19.47,15.63-29.08,23.6-6.37,5.28-12.43,10.93-18.78,16.24-2.37,1.99-5.17,3.47-7.77,5.18-.28-.26-.57-.52-.85-.77.61-.9,1.06-1.97,1.84-2.67,6.62-5.89,13.31-11.7,19.97-17.55,7.2-6.33,14.39-12.69,21.59-19.02,11.37-9.99,22.77-19.95,34.11-29.98,3.92-3.47,7.7-7.1,11.56-10.64,3.11-2.85,3.93-2.77,6.42.63.46.63.8,1.34,1.42,2.38,1.19-1.75,2.28-3.2,3.22-4.74,2.69-4.39,5.42-8.76,7.96-13.23,4.45-7.83,11.51-13.16,17.95-19.09,3.79-3.5,7.56-7.02,11.27-10.6,1.3-1.26,2.46-1.35,3.78-.17,2.93,2.64,5.85,5.29,8.8,7.91,3.06,2.72,6.15,5.41,9.52,8.36,4.58-4.91,9-9.79,13.59-14.51,4.15-4.27,8.46-8.38,12.74-12.52,4.51-4.37,9.05-8.71,13.61-13.02,3.16-2.99,6.45-5.83,9.54-8.88,1.7-1.68,3.08-1.38,4.5.14,5.24,5.59,10.62,11.09,14.11,18.03,2.52,5.01,6.37,8.19,11.92,9.25,2.58.49,4.39,1.89,5.9,4.13,4.84,7.22,9.9,14.29,15.17,21.83,11.08-6.69,22.05-13.32,33.25-20.08,3.49,3.34,7.16,6.92,10.92,10.41,8.7,8.05,17.45,16.04,26.15,24.09,1.35,1.25,2.47,2.76,3.75,4.1,2.4,2.49,4.71,5.09,7.29,7.39,9.46,8.4,19.08,16.61,28.52,25.04,17.3,15.47,34.52,31.04,51.77,46.57,2.07,1.86,4.16,3.72,5.19,6.37-.18.24-.36.48-.53.73-1.65-.96-3.39-1.78-4.92-2.9-4.89-3.57-9.86-7.06-14.51-10.93-7.06-5.86-13.88-12.01-20.79-18.05-3.39-2.96-6.8-5.9-10.15-8.91-6.33-5.68-12.64-11.4-18.95-17.11-5.53-5.02-11.11-9.99-16.56-15.09-5.28-4.94-10.37-10.08-15.65-15.03-10.02-9.4-20.11-18.73-30.18-28.09-.21-.2-.52-.3-1.18-.68,0,3.34.05,6.36-.03,9.37-.03.89-.17,2.07-.75,2.6-2.23,2.05-1.48,4.11-.13,6.01,3.59,5.05,7.34,9.99,11.02,14.98.93,1.27,1.84,2.55,2.77,3.85-3.43,1.92-4.22,1.81-7.05-.25-.72-.52-1.74-.63-3.14-1.11.11,2.25-.06,4.12.35,5.85.63,2.64,1.73,5.16,2.5,7.77.23.79.04,1.71.04,2.65.64.65,1.63,1.42,2.33,2.41"/>
  </g>
  <g class="st4">
    <path d="M345.93,177.22c-.79.83-1.97.56-2.64-.4-.61-.87-.65-2-.67-3.07-.09-5.38-.18-10.75-.26-16.13-.04-2.45.42-5.54-.16-7.92-.44-1.81-2.43-2.85-3.86-3.84-7.96-5.53-15.91-11.05-23.87-16.58-.84-.59-1.71-1.18-2.7-1.43-2.03-.52-3.84,1.21-5.41,2.25-5.68,3.78-11.32,7.6-16.95,11.45-2.65,1.81-6.01,3.49-8.29,5.74-1.59,1.56-1.59,4.5-1.64,6.58,0,4.78-.24,9.57-.36,14.35-.06,2.44-.12,4.89-.18,7.33-.03,1.35.23,1.58-.92,1.92-.56.17-2.3.36-2.78-.09-.63-.59-.24-2.08-.21-2.88.1-2.64.19-5.28.28-7.91.14-4.34.33-8.69.38-13.03.02-1.93-.34-2.42-2.29-2.4-2.2.02-4.42.24-6.62.36-2.88.16-2.92-3.89-1.73-5.78.71-1.15,1.8-2,2.87-2.83.61,0,2.22-1.73,2.73-2.13,1.08-.84,2.15-1.68,3.23-2.52,2.15-1.68,4.31-3.35,6.46-5.04,4.21-3.29,8.44-6.55,12.66-9.83,4.42-3.43,8.84-6.87,13.3-10.25.42-.32,1.16-.47,1.7-.37,4.99.93,9.94,2.01,14.94,2.89,8.19,1.44,16.39,2.86,24.61,4.05,2.81.4,5.72.06,8.89.06-.28-1.98-.5-3.51-.77-5.36,2.08.12,4.14.23,6.42.36-.11,2.12-.21,4.09-.34,6.45,2.39.12,4.59.16,6.78.36,1.07.1,2.3.23,3.12.82,10.96,7.8,21.88,15.66,32.77,23.56,1.92,1.4,3.67,3.05,5.43,4.64.49.45.89,1.16,1.07,1.77-1.76.44-4.02.1-5.85.11-2.24,0-7.07-1.22-7.04,2.02.07,6.96-.04,13.86.4,20.81.04.57.04,1.22-.4,1.59-.54.45-1.43.12-1.79-.49s-.35-1.35-.32-2.05c.19-5.42.38-10.85.57-16.27.06-1.57.04-3.32-1.04-4.46-1.93-2.03-5.89-.81-8.34-.83-6.04-.04-12.08-.07-18.11-.15-6.44-.09-12.86-.27-19.29-.55-3.31-.14-3.94,1.53-3.83,4.65.14,3.67.27,7.33.41,11,.06,1.74.11,3.48.18,5.22.05,1.2.42,2.84-.3,3.92-.07.11-.15.21-.24.3ZM404.39,151.38c.05-.33.09-.66.14-.99-1.62-1.82-3.88-2.16-6.18-2.27-5.68-.27-11.36-.55-17.05-.69-10.11-.25-20.22-.39-30.33-.6-.45,0-.97-.22-1.32-.51-.69-.57-1.22-1.35-1.94-1.88-6.35-4.63-12.68-9.28-19.1-13.8-6.07-4.28-12.21-8.44-18.36-12.61-1.26-.85-2.54-1.77-3.85.22-.7,1.07-1.87,1.86-2.93,2.65-10.64,7.89-21.3,15.74-31.94,23.63-1.4,1.04-2.67,2.26-4.41,3.75,2.73.43,4.32-.67,5.83-1.71,3.11-2.15,6.14-4.42,9.19-6.67,7.45-5.48,14.96-10.89,22.31-16.51,3.76-2.87,3.66-3.11,7.63-.31,11.23,7.92,22.53,15.74,33.55,23.93,3.11,2.31,6.14,3,9.82,3.08,14.67.31,29.34.85,44,1.29,1.64.05,3.28,0,4.92,0Z"/>
    <path d="M316.26,173.91c-3.62,0-6.83.05-10.04-.05-.48-.02-1.14-.68-1.34-1.19-.27-.68-.26-1.51-.24-2.27.11-3.63.26-7.25.41-10.88.02-.41.15-.81.25-1.34h10.96v15.74Z"/>
    <path d="M304.5,134.69h11.62v9.26c-3.16,0-6.29.04-9.42-.02-1.16-.02-1.91-.58-1.91-1.97,0-2.36-.18-4.71-.3-7.27Z"/>
  </g>
  <g id="dom">
    <path class="st3" d="M349.81,146.79l53.96,1.36-32.23-26.57-9.47-.41.17-6.72h-6.89v5.7c1.02.19-37.61-4.25-48.26-7.23-4,2.72-44,31.23-42.21,35.23,11.57-7.4,38.38-28.17,42.81-30.98,10.13,6.38,42.13,29.62,42.13,29.62Z"/>
    <rect class="st3" x="342.55" y="140" width="4.09" height="38.06"/>
    <rect class="st3" x="275.15" y="137.79" width="4.09" height="39.11"/>
    <rect class="st3" x="393.47" y="147.51" width="4.09" height="27.82"/>
    <rect class="st3" x="304.55" y="134.94" width="11.49" height="8.55"/>
    <rect class="st3" x="304.7" y="158.16" width="11.49" height="16.43"/>
  </g>
  <g id="otter">
    <path class="st4" d="M307.46,3.92c1.09-1.68,1.82-2.81,2.35-3.63-1.23-2.22-2.33-4.19-4.08-7.35,8.91.65,16.45,1.39,24,1.69,5.85.23,11.76.33,17.56-.26,14.11-1.45,27.99-1.21,41.6,3.33,2.99,1,6.24,2.24,10.04-1.65-5.14-2.97-9.89-5.7-15.52-8.96,19.89-3.81,39.14-2.33,58.31-2.24.14-.42.28-.83.42-1.25-1.35-.63-2.64-1.55-4.06-1.83-13.91-2.78-27.74-6.18-41.78-8.01-25.74-3.35-51.51-6.26-76.62-13.28-9.96-2.78-20.02-5.77-30.66-4.14-13.77,2.11-23.82,10.95-33.73,19.45-8.36,7.17-15.53,15.72-23.27,23.62-1.32,1.35-2.68,2.78-4.29,3.7-5.5,3.13-6.39,9.14-8.86,14.11-.26.52,2.43,3.59,3.36,3.42,7.38-1.38,14.87-2.71,21.93-5.17,5.92-2.06,11.36-5.54,16.92-8.56,3.29-1.78,6.27-4.15,9.62-5.77,3.6-1.74,7.42-3.15,11.27-4.24,2.41-.68,5.38.18,7.54-.83,4.98-2.32,8.51-1.11,11.85,2.85,1.53,1.81,3.69,3.08,6.08,5.01Z"/>
    <path class="st4" d="M78.87,79.51c.7,18.24,11.75,27.49,24.28,35.12,6.56,4,14.07,6.93,22.24,5.55,2.5-.42,4.89-1.52,7.35-2.2,1.49-.41,3.02-.75,4.55-.89,4.48-.43,8.99-.63,13.46-1.12,8.27-.91,15.58-3.79,22.11-9.31,3.98-3.36,9.43-4.93,13.71-8,6.26-4.48,12.36-9.27,17.96-14.53,3.84-3.61,6.84-8.14,9.96-12.45,1.82-2.51,3.16-5.37,5.04-8.65-8.64-.59-11.26,6.52-16.3,9.61-.45-.25-.9-.5-1.36-.75.61-1.63.92-3.46,1.88-4.86,12.58-18.47,31.21-23.39,52.15-23.04,2.32.04,4.65,0,6.97,0,.1-.43.21-.85.31-1.28-1.26-.52-2.48-1.36-3.79-1.51-9.96-1.16-19.92-2.92-29.9-3.08-14.62-.23-26.42,7.27-37.46,16.01-1.63,1.29-3.02,3.08-4.85,3.89-10.04,4.4-18.54,11.27-27.84,16.78-14.17,8.4-30.42,10.31-46.78,8.23-5.69-.72-11.1-3.73-16.8-4.4-5.29-.62-10.79.48-16.91.87Z"/>
    <path class="st4" d="M441.54,91.74c-7.23-1.31-14.49-2.49-21.69-3.96-16.8-3.42-31.05-11.46-40.25-26.02-10.33-16.33-25.67-18.67-42.52-17-6.73.67-13.35,3.4-19.81,5.78-7.04,2.6-13.9,3.47-21.23,1.29-7.33-2.18-14.75-2.26-21.65,1.66-1.65.94-3.77,2.75-3.84,4.24-.07,1.42,2,3.41,3.59,4.35,4.16,2.45,8.7,4.27,12.85,6.74,2.32,1.39,6.16,4.19,5.83,5.32-1.05,3.52-3.4,6.88-5.97,9.63-1.56,1.66-4.46,2.07-7.73,3.44,6.24,2.89,11.1.36,15.88-.81,2.76-.68,5.25-2.56,7.79-4.01,6.24-3.57,12.6-2.88,18.95-.5,1.9.71,3.63,1.88,5.44,2.84-.52.67-1.03,1.34-1.55,2-2.43,1.65-4.86,3.29-7.85,5.32,9.25,1.77,12.27.19,14.74-7.01,2.15-6.26,5.56-8.43,11.97-7.62,2,.25,4,.48,6.39.76-.43,1.6-.84,3.16-1.75,6.56,4-2.1,6.76-3.54,10.08-5.27,3.99,8.12-6.5,6.25-8.97,10.85,8.65.05,16.69,2.54,21.68-6.81,1.9-3.56,5.41-4.41,9.81-2,16.82,9.23,41.72,13.66,59.81,10.24Z"/>
    <path d="M45.26,166.71c17.49,4.54,34.97,9.76,52.77.07,3.08,7.49,7.29,13.39,15.81,14.46.83.11,2.26.38,2.44.05,2.66-4.91,8.21-2.06,12.41-4.74-2.17-.8-3.84-1.41-5.52-2.02,9.66-.92,18.91-7.48,28.99-2.14,1.08.57,2.47,1.4,2.82,2.41,2.9,8.34,6.92,10.32,16.25,7-2.36-1.14-4.06-2.36-5.93-2.78-4.01-.89-4.27-2.91-2.28-5.9,3.64-5.45,7.26-10.92,11.01-16.29,3.36-4.82,6.6-9.76,10.43-14.2,3.9-4.52,8.52-8.4,12.65-12.74,1.39-1.46,2.73-3.32,3.17-5.21.67-2.85.27-5.85-3.87-5.55-4.78.34-9.61.65-14.31,1.53-6.09,1.14-9.34,6.33-12.63,10.74-5.28,7.09-11.93,10.34-20.56,9.63-8.43-.69-16.85-1.52-25.27-2.42-11.49-1.23-20.25,4.29-26.26,12.88-10.63,15.22-25.01,17.67-41.68,14.97-3.43-.56-6.93-.74-10.39-1.09-.02.45-.04.9-.06,1.35Z"/>
    <path class="st4" d="M270.49,179.06c-1.25-1.61-1.83-2.35-2.42-3.1,7.55-5.41,16.03.24,24.44-2.16-1.76-1.25-3.14-2.22-4.53-3.2,6.19,1.74,11.29,7.66,18.86,3.7-2.72-1.97-5.5-3.68-7.91-5.81-2.63-2.33-2.27-4.97-.11-7.67,7.6-9.52,7.65-20.33,5.14-31.52-.26-1.18-.99-2.31-1.01-3.47-.08-4.85-2.65-7.84-7.04-9.07-5.03-1.4-9.11.72-12.3,4.56-.64.77-.63,2.09-.92,3.15-1.22,4.47-1.29,9.92-4.01,13.11-2.28,2.67-7.59,3.22-11.68,3.79-5.95.83-12.15.18-18.02,1.31-10.25,1.99-17.12,10.83-18.12,21.1-.18,1.87-2.25,4.62-3.96,5.08-9.14,2.5-18.43,4.45-27.68,6.5-2.94.65-5.94,1.05-8.91,1.56,0,.57.01,1.14.02,1.71,1.88.27,3.75.69,5.64.79,15.61.83,31.09.33,46.56-2.62,4.87-.93,10.34,1.61,15.58,2.15,3.71.38,7.49.07,12.37.07Z"/>
    <path class="st4" d="M173.69-8.4c2.28,5.69,4.29,10.72,6.49,16.21,4.71-3.96,5.57-8.19,2.72-11.46-3.29-3.77-1.82-5.94,1.64-8.28,8.46-5.72,12.5-15.44,10.02-25.3-5.37.48-11.02,1.8-16.48,1.23-4.55-.48-8.96-2.98-13.26-4.96-3.6-1.66-6.95-3.88-10.42-5.82-8.74-4.88-17.32-4.53-25.33,1.41-4.43,3.28-8.72,6.9-12.42,10.96-5.33,5.83-11.85,8.55-19.41,8.22-9.15-.4-18.26-1.59-27.39-2.43-2.68-.25-5.37-.47-8.99-.79,9.12,6.7,43.33,12.02,55.36,8.86.69,1.77,1.54,3.59,2.11,5.49,1.52,5.04,6.13,6.35,10.12,8.29.6.29,2.79-1.01,2.94-1.83.27-1.4-.01-3.45-.92-4.39-1.48-1.52-3.66-2.37-5.54-3.5.11-.46.22-.91.32-1.37,1.59.25,3.74-.07,4.7.85,5.94,5.67,13.47,7.23,21,9.23,2.4.64,4.57,3.1,6.26,5.2,2.14,2.67,3.48,5.97,5.58,8.69.88,1.14,3.07,2.29,4.2,1.93,1.37-.42,3.09-2.42,3.11-3.76.03-1.6-1.45-3.32-2.54-4.8-.42-.57-1.81-.39-2.32-.95-.85-.93-1.78-2.17-1.82-3.3-.03-.76,1.32-2.04,2.25-2.28,2.8-.7,5.7-1,8.04-1.37Z"/>
    <path class="st4" d="M361.48,136.92c-.28-2.8-.93-5.06-.62-7.18.62-4.21-1.53-6.3-5.07-6.95-3.52-.64-7.21-.94-10.75-.61-2.59.25-3.82,2.16-5.23,5.03-5.87,11.96-.68,24.78-3.98,36.75-.92,3.32-2.55,6.45-3.98,9.99,3.79,2.77,7.19-.06,9.74-2.79,3.26-3.49,6.92-4.11,11.31-3.88,2.31,5.51-3.81,5.11-5.86,8.68,2.2.16,3.95.54,5.64.37,6.71-.66,13.74-.47,20.05-2.49,11.67-3.73,22.73-.78,34.02.95,12.31,1.88,24.62,3.75,36.93,5.62.19-.48.39-.95.58-1.43-3.89-1.72-7.75-3.5-11.68-5.14-8.78-3.66-17.57-7.28-26.39-10.86-3.14-1.27-4.95-3.02-4.97-6.86-.08-13.63-12.97-24.69-27.59-20.73-3.61.98-7.49.97-12.15,1.53Z"/>
    <path class="st4" d="M77.24,63.31c2.34.33,5.25-.33,7.25-4.05,1.76-3.26,4.73-4.39,8.72-4.1,3.72.27,7.72-.22,11.23-1.42,2.66-.91,4.44-1.17,6.39.92,2.28,2.44,1.64,4.66-.25,6.91-.18.22-.1.65-.14.98,8.91,1.84,12.33-3.58,12.39-19.62,4.79,1.39,5.39,2.47,4.39,7.04-.5,2.29-.65,4.65-.96,6.98.61.38,1.22.76,1.83,1.13,2.09-2.33,4.19-4.66,6.6-7.35,8.21,9.51,19.49,4.77,30.01,4.96.07-.43.14-.86.2-1.28-2.89-.36-5.77-.96-8.67-1.04-6.81-.19-11.34-3.25-13.98-9.59-2.78-6.68-4.97-13.96-9.25-19.58-6.09-7.99-10.71-18.76-23.47-18.67-10.29.07-15.11,7.5-19,15.23-1.8,3.58-3.78,4.78-7.13,4.08-7.6-1.6-14.23.06-20.53,4.55-2.34,1.66-2.85,3.25-1.24,4.95,2.44,2.58,5.07,5.62,8.23,6.71,5.54,1.91,7.89,4.97,7.44,10.71-.28,3.58-.05,7.21-.05,11.57Z"/>
  </g>
</svg>